HIERARCHY
ROOT Root
{
  OFFSET 0.0 0.0 0.0
  CHANNELS 6 Xposition Yposition Zposition Zrotation Yrotation Xrotation
  JOINT Hips
  {
    OFFSET 0.0 100.0 0.0
    CHANNELS 6 Xposition Yposition Zposition Zrotation Yrotation Xrotation
    JOINT Spine1
    {
      OFFSET -0.013727 5.003763 -0.053727
      CHANNELS 3 Zrotation Yrotation Xrotation
      JOINT Spine2
      {
        OFFSET -0.0 7.125301 -0.029825
        CHANNELS 3 Zrotation Yrotation Xrotation
        JOINT Chest
        {
          OFFSET -1e-06 7.550063 -0.815971
          CHANNELS 3 Zrotation Yrotation Xrotation
          JOINT Neck1
          {
            OFFSET -0.181677 26.311295 -0.553348
            CHANNELS 3 Zrotation Yrotation Xrotation
            JOINT Neck2
            {
              OFFSET -3e-06 7.709397 2.302585
              CHANNELS 3 Zrotation Yrotation Xrotation
              JOINT Head
              {
                OFFSET -5e-06 6.128916 1.953709
                CHANNELS 3 Zrotation Yrotation Xrotation
                JOINT HeadEnd
                {
                  OFFSET 0.003598 16.065403 -1.835379
                  CHANNELS 3 Zrotation Yrotation Xrotation
                }
                JOINT Jaw
                {
                  OFFSET 0.002637 0.475592 3.094941
                  CHANNELS 3 Zrotation Yrotation Xrotation
                }
                JOINT LeftEye
                {
                  OFFSET 3.206381 5.380205 7.586883
                  CHANNELS 3 Zrotation Yrotation Xrotation
                }
                JOINT RightEye
                {
                  OFFSET -3.22244 5.361869 7.558234
                  CHANNELS 3 Zrotation Yrotation Xrotation
                }
              }
            }
          }
          JOINT LeftShoulder
          {
            OFFSET 1.621652 23.237164 5.113413
            CHANNELS 3 Zrotation Yrotation Xrotation
            JOINT LeftArm
            {
              OFFSET 14.919846 2e-06 -5.502326
              CHANNELS 3 Zrotation Yrotation Xrotation
              JOINT LeftForeArm
              {
                OFFSET 28.739307 0.0 -0.002588
                CHANNELS 3 Zrotation Yrotation Xrotation
                JOINT LeftHand
                {
                  OFFSET 27.093981 -1e-06 0.002609
                  CHANNELS 3 Zrotation Yrotation Xrotation
                  JOINT LeftHandThumb1
                  {
                    OFFSET 2.276482 -1.392045 3.191413
                    CHANNELS 3 Zrotation Yrotation Xrotation
                    JOINT LeftHandThumb2
                    {
                      OFFSET 4.012836 -1.828127 1.641654
                      CHANNELS 3 Zrotation Yrotation Xrotation
                      JOINT LeftHandThumb3
                      {
                        OFFSET 2.798515 0.0 -3e-06
                        CHANNELS 3 Zrotation Yrotation Xrotation
                        JOINT LeftHandThumbEnd
                        {
                          OFFSET 3.180793 -4e-06 4e-06
                          CHANNELS 3 Zrotation Yrotation Xrotation
                        }
                      }
                    }
                  }
                  JOINT LeftHandIndex1
                  {
                    OFFSET 3.247555 -0.531998 2.296169
                    CHANNELS 3 Zrotation Yrotation Xrotation
                    JOINT LeftHandIndex2
                    {
                      OFFSET 6.364578 0.01206 0.1786
                      CHANNELS 3 Zrotation Yrotation Xrotation
                      JOINT LeftHandIndex3
                      {
                        OFFSET 3.662364 0.0 0.0
                        CHANNELS 3 Zrotation Yrotation Xrotation
                        JOINT LeftHandIndex4
                        {
                          OFFSET 2.329242 4e-06 4e-06
                          CHANNELS 3 Zrotation Yrotation Xrotation
                          JOINT LeftHandIndexEnd
                          {
                            OFFSET 2.759615 -0.180537 -0.113024
                            CHANNELS 3 Zrotation Yrotation Xrotation
                          }
                        }
                      }
                    }
                  }
                  JOINT LeftHandMiddle1
                  {
                    OFFSET 3.163495 0.240981 1.000332
                    CHANNELS 3 Zrotation Yrotation Xrotation
                    JOINT LeftHandMiddle2
                    {
                      OFFSET 6.19078 -0.259278 -1.002548
                      CHANNELS 3 Zrotation Yrotation Xrotation
                      JOINT LeftHandMiddle3
                      {
                        OFFSET 4.35652 -4e-06 -1e-06
                        CHANNELS 3 Zrotation Yrotation Xrotation
                        JOINT LeftHandMiddle4
                        {
                          OFFSET 2.996877 -8e-06 0.0
                          CHANNELS 3 Zrotation Yrotation Xrotation
                          JOINT LeftHandMiddleEnd
                          {
                            OFFSET 2.304287 -0.294569 -0.031741
                            CHANNELS 3 Zrotation Yrotation Xrotation
                          }
                        }
                      }
                    }
                  }
                  JOINT LeftHandRing1
                  {
                    OFFSET 2.882643 -0.053652 -0.322543
                    CHANNELS 3 Zrotation Yrotation Xrotation
                    JOINT LeftHandRing2
                    {
                      OFFSET 5.854541 -0.486202 -1.373841
                      CHANNELS 3 Zrotation Yrotation Xrotation
                      JOINT LeftHandRing3
                      {
                        OFFSET 4.350578 0.0 3e-06
                        CHANNELS 3 Zrotation Yrotation Xrotation
                        JOINT LeftHandRing4
                        {
                          OFFSET 2.651321 7e-06 2e-06
                          CHANNELS 3 Zrotation Yrotation Xrotation
                          JOINT LeftHandRingEnd
                          {
                            OFFSET 1.936105 0.077687 -7.1e-05
                            CHANNELS 3 Zrotation Yrotation Xrotation
                          }
                        }
                      }
                    }
                  }
                  JOINT LeftHandPinky1
                  {
                    OFFSET 2.8655 -0.310005 -1.600378
                    CHANNELS 3 Zrotation Yrotation Xrotation
                    JOINT LeftHandPinky2
                    {
                      OFFSET 5.087849 -1.331141 -1.77123
                      CHANNELS 3 Zrotation Yrotation Xrotation
                      JOINT LeftHandPinky3
                      {
                        OFFSET 3.070974 4e-06 0.0
                        CHANNELS 3 Zrotation Yrotation Xrotation
                        JOINT LeftHandPinky4
                        {
                          OFFSET 1.549672 0.0 1e-06
                          CHANNELS 3 Zrotation Yrotation Xrotation
                          JOINT LeftHandPinkyEnd
                          {
                            OFFSET 1.944893 -0.157802 0.057219
                            CHANNELS 3 Zrotation Yrotation Xrotation
                          }
                        }
                      }
                    }
                  }
                }
              }
            }
          }
          JOINT RightShoulder
          {
            OFFSET -1.380118 23.180309 5.214158
            CHANNELS 3 Zrotation Yrotation Xrotation
            JOINT RightArm
            {
              OFFSET -15.037196 1.2e-05 -5.545604
              CHANNELS 3 Zrotation Yrotation Xrotation
              JOINT RightForeArm
              {
                OFFSET -28.736639 2e-06 -0.002597
                CHANNELS 3 Zrotation Yrotation Xrotation
                JOINT RightHand
                {
                  OFFSET -27.133619 -0.0 0.002613
                  CHANNELS 3 Zrotation Yrotation Xrotation
                  JOINT RightHandThumb1
                  {
                    OFFSET -2.274032 -1.383988 3.163127
                    CHANNELS 3 Zrotation Yrotation Xrotation
                    JOINT RightHandThumb2
                    {
                      OFFSET -4.011429 -1.827466 1.640914
                      CHANNELS 3 Zrotation Yrotation Xrotation
                      JOINT RightHandThumb3
                      {
                        OFFSET -2.794935 -4e-06 -3e-06
                        CHANNELS 3 Zrotation Yrotation Xrotation
                        JOINT RightHandThumbEnd
                        {
                          OFFSET -3.183852 4e-06 1e-06
                          CHANNELS 3 Zrotation Yrotation Xrotation
                        }
                      }
                    }
                  }
                  JOINT RightHandIndex1
                  {
                    OFFSET -3.253266 -0.520057 2.282866
                    CHANNELS 3 Zrotation Yrotation Xrotation
                    JOINT RightHandIndex2
                    {
                      OFFSET -6.341917 0.012471 0.178266
                      CHANNELS 3 Zrotation Yrotation Xrotation
                      JOINT RightHandIndex3
                      {
                        OFFSET -3.654871 -8e-06 -0.0
                        CHANNELS 3 Zrotation Yrotation Xrotation
                        JOINT RightHandIndex4
                        {
                          OFFSET -2.327586 0.0 1e-06
                          CHANNELS 3 Zrotation Yrotation Xrotation
                          JOINT RightHandIndexEnd
                          {
                            OFFSET -2.76179 -0.180656 -0.113078
                            CHANNELS 3 Zrotation Yrotation Xrotation
                          }
                        }
                      }
                    }
                  }
                  JOINT RightHandMiddle1
                  {
                    OFFSET -3.168106 0.246593 1.00103
                    CHANNELS 3 Zrotation Yrotation Xrotation
                    JOINT RightHandMiddle2
                    {
                      OFFSET -6.180828 -0.258836 -1.000895
                      CHANNELS 3 Zrotation Yrotation Xrotation
                      JOINT RightHandMiddle3
                      {
                        OFFSET -4.348901 0.0 -0.0
                        CHANNELS 3 Zrotation Yrotation Xrotation
                        JOINT RightHandMiddle4
                        {
                          OFFSET -3.00024 -4e-06 -2e-06
                          CHANNELS 3 Zrotation Yrotation Xrotation
                          JOINT RightHandMiddleEnd
                          {
                            OFFSET -2.30252 -0.29437 -0.031706
                            CHANNELS 3 Zrotation Yrotation Xrotation
                          }
                        }
                      }
                    }
                  }
                  JOINT RightHandRing1
                  {
                    OFFSET -2.88569 -0.067952 -0.308858
                    CHANNELS 3 Zrotation Yrotation Xrotation
                    JOINT RightHandRing2
                    {
                      OFFSET -5.854198 -0.48613 -1.373731
                      CHANNELS 3 Zrotation Yrotation Xrotation
                      JOINT RightHandRing3
                      {
                        OFFSET -4.33881 -4e-06 -0.0
                        CHANNELS 3 Zrotation Yrotation Xrotation
                        JOINT RightHandRing4
                        {
                          OFFSET -2.654903 -4e-06 4e-06
                          CHANNELS 3 Zrotation Yrotation Xrotation
                          JOINT RightHandRingEnd
                          {
                            OFFSET -1.933568 0.077527 -5.2e-05
                            CHANNELS 3 Zrotation Yrotation Xrotation
                          }
                        }
                      }
                    }
                  }
                  JOINT RightHandPinky1
                  {
                    OFFSET -2.866425 -0.342796 -1.584145
                    CHANNELS 3 Zrotation Yrotation Xrotation
                    JOINT RightHandPinky2
                    {
                      OFFSET -5.091371 -1.332055 -1.772385
                      CHANNELS 3 Zrotation Yrotation Xrotation
                      JOINT RightHandPinky3
                      {
                        OFFSET -3.062664 -4e-06 1e-06
                        CHANNELS 3 Zrotation Yrotation Xrotation
                        JOINT RightHandPinky4
                        {
                          OFFSET -1.546529 4e-06 -2e-06
                          CHANNELS 3 Zrotation Yrotation Xrotation
                          JOINT RightHandPinkyEnd
                          {
                            OFFSET -1.945119 -0.157718 0.057211
                            CHANNELS 3 Zrotation Yrotation Xrotation
                          }
                        }
                      }
                    }
                  }
                }
              }
            }
          }
        }
      }
    }
    JOINT LeftLeg
    {
      OFFSET 10.043214 -8.434526 2.595655
      CHANNELS 3 Zrotation Yrotation Xrotation
      JOINT LeftShin
      {
        OFFSET -1e-06 -43.221752 -0.802913
        CHANNELS 3 Zrotation Yrotation Xrotation
        JOINT LeftFoot
        {
          OFFSET 1e-06 -42.155094 -3.481523
          CHANNELS 3 Zrotation Yrotation Xrotation
          JOINT LeftToeBase
          {
            OFFSET 0.0 -5.059472 13.231529
            CHANNELS 3 Zrotation Yrotation Xrotation
            JOINT LeftToeEnd
            {
              OFFSET -0.009607 -1.647619 6.513017
              CHANNELS 3 Zrotation Yrotation Xrotation
            }
          }
        }
      }
    }
    JOINT RightLeg
    {
      OFFSET -10.047278 -8.29526 2.620317
      CHANNELS 3 Zrotation Yrotation Xrotation
      JOINT RightShin
      {
        OFFSET 1e-06 -43.362206 -0.805556
        CHANNELS 3 Zrotation Yrotation Xrotation
        JOINT RightFoot
        {
          OFFSET 2e-06 -42.117393 -3.478398
          CHANNELS 3 Zrotation Yrotation Xrotation
          JOINT RightToeBase
          {
            OFFSET -0.0 -5.079609 13.284196
            CHANNELS 3 Zrotation Yrotation Xrotation
            JOINT RightToeEnd
            {
              OFFSET 0.009532 -1.634378 6.460591
              CHANNELS 3 Zrotation Yrotation Xrotation
            }
          }
        }
      }
    }
  }
}
MOTION
Frames: 4
Frame Time: 0.03333333333333333
0.0 0.0 0.0 0.0 -0.0 0.0 0.825894 87.571609 123.412491 2.78947 -4.992423 7.448606 -1.913889 -1.170231 4.119844 -0.639369 -1.057266 -2.228248 -3.011287 -3.502279 6.259244 4.496755 0.439773 -18.792456 -1.069369 1.034221 -3.317925 4.735842 -4.996046 -4.088346 7.7e-05 -2.3e-05 6e-06 -0.011095 -0.007265 -0.021008 0.787342 -3.716236 -10.570173 -0.813479 3.68472 -10.578016 -8.641704 -6.339054 14.507037 -54.204418 3.666419 37.854431 -3.510792 -39.596985 2.135098 20.441828 1.477407 -14.840454 -5.882105 9.861283 0.70259 -10.936869 -0.360575 7.156203 1e-06 8.774822 -2e-06 -15.311669 18.400352 6.361046 -1.844032 2.498504 -2.507278 -10.163597 4.678943 4.621106 -20.976023 -3e-06 0.0 -21.226286 2.451695 -3.594001 -1e-06 -6e-06 -1e-06 -1.362682 2.240798 -0.746323 -21.334913 0.584909 3.008323 -13.821213 -3e-06 1e-06 -23.887167 -0.249081 -0.839484 -59.739922 2.021095 -0.842405 -0.294024 1.679686 0.833258 -14.218205 0.093214 1.300581 -34.212048 -0.287567 0.967168 -20.033211 0.964535 1.212842 -0.0 0.0 1e-06 -3.440388 0.788233 0.501656 -15.928185 -3.167309 2.999707 -6.338825 -2e-06 0.0 -18.123444 3.64818 -4.90567 -4e-06 -0.0 0.0 21.62689 -1.577188 13.421607 36.17849 13.412835 21.072502 -0.412295 14.389776 -0.035838 3.669222 -36.912544 24.954891 2.243539 -5.255037 -3.180158 14.282889 -0.826595 6.952505 -1e-06 -12.690606 2e-06 13.013508 -18.058657 2.889423 1.665665 -1.955922 -2.878298 4.727798 -4.170588 4.993925 11.020527 2e-06 -1e-06 12.109055 -3.735717 -2.866785 1e-06 -1e-06 -1e-06 1.291983 -1.92855 -1.498089 14.800131 0.567467 3.865607 14.242575 -1.341736 -6.660657 19.631969 0.143927 -0.648245 48.352856 -0.845773 -6.379729 0.353029 -1.511151 -0.03194 20.222794 3.684309 2.316629 18.787271 4e-06 -0.0 10.751629 -0.479867 1.397908 0.0 1e-06 0.0 3.273805 0.305948 -0.580111 21.486811 11.830376 2.266133 8.162926 2e-06 0.0 18.39908 -3.798985 -4.940575 3e-06 1e-06 -0.0 -3.041268 10.454027 -36.191151 -0.078196 -0.057097 60.749931 -6.366767 8.993259 -31.926432 1.586792 -2.080384 0.328268 0.0 -0.0 2e-06 -8.405952 -17.825012 -55.15284 0.001374 -0.02373 73.736351 0.112806 -3.38698 -8.597082 -1.398023 0.849724 -3.485641 0.0 0.0 -1e-06 
0.0 0.0 0.0 0.0 -0.0 0.0 0.50131 87.500702 125.720474 2.287035 -6.38278 7.98832 -1.899559 -1.290277 4.521603 -0.730215 -1.063319 -2.200538 -3.031899 -3.948998 6.048117 5.548602 0.607372 -19.110704 -1.042012 1.110855 -3.228005 4.448442 -4.538751 -4.162055 7.7e-05 -2.3e-05 6e-06 -0.009346 0.033913 -0.018832 0.767495 -3.680888 -10.602192 -0.788111 3.735492 -10.606653 -7.914119 -7.16037 15.029556 -47.310383 9.536282 43.181858 -6.114451 -45.469696 3.252932 10.626849 3.055107 -21.679071 -5.88211 9.861289 0.702588 -10.936873 -0.360575 7.156203 0.0 8.774828 -1e-06 -14.659701 17.571712 7.333575 -1.844034 2.498505 -2.507281 -10.163604 4.678947 4.621107 -20.97603 -2e-06 -2e-06 -21.226297 2.451698 -3.594004 0.0 -6e-06 -1e-06 -1.362682 2.240798 -0.746324 -21.334925 0.584912 3.008318 -13.821218 -3e-06 -2e-06 -23.88718 -0.249079 -0.839487 -61.315819 1.933101 -0.683897 -0.294025 1.679688 0.833257 -14.218214 0.093217 1.30058 -34.212059 -0.287563 0.967163 -20.03322 0.964535 1.212839 -1e-06 -0.0 0.0 -3.440389 0.788234 0.501655 -15.928189 -3.167309 2.999702 -6.33883 0.0 0.0 -18.123455 3.648185 -4.905675 -6e-06 -0.0 -0.0 21.993677 -2.935009 13.479565 32.205921 15.342685 22.443586 -1.093026 24.892054 -0.412605 12.60747 -39.609676 25.443825 2.243541 -5.255037 -3.180157 14.282893 -0.826597 6.952507 -1e-06 -12.690606 0.0 14.18504 -19.307781 2.634036 1.665665 -1.95592 -2.878299 4.727799 -4.170589 4.993926 11.020529 2e-06 2e-06 12.109053 -3.735719 -2.866782 1e-06 -0.0 0.0 1.291983 -1.928548 -1.498088 14.800129 0.567467 3.865612 14.242571 -1.341739 -6.660656 19.631969 0.143923 -0.648242 49.014862 -0.975271 -6.5782 0.35303 -1.511152 -0.031941 20.222794 3.684308 2.316635 18.787271 0.0 2e-06 10.751629 -0.479871 1.397906 0.0 -1e-06 0.0 3.273806 0.305946 -0.580111 21.486813 11.830373 2.266135 8.162928 -0.0 1e-06 18.399086 -3.798991 -4.940572 2e-06 1e-06 0.0 -2.286125 12.586244 -35.065613 -0.183264 -0.084926 61.469852 -7.666571 8.027478 -32.723698 1.659952 -2.107334 -0.083526 -0.0 -0.0 2e-06 -2.759221 -16.273573 -58.085072 -0.122182 -0.103789 60.600266 1.109371 -3.489568 -8.266598 -1.414761 0.868609 -2.477694 0.0 1e-06 -1e-06 
0.0 0.0 0.0 0.0 -0.0 0.0 -0.03221 87.203171 127.869965 1.580748 -7.070919 8.329085 -1.776402 -1.14643 5.185593 -0.934085 -1.056131 -2.183602 -2.906856 -4.349987 6.188245 6.332561 1.080151 -19.244438 -0.884544 0.649402 -3.183602 4.005789 -4.505156 -4.22683 7.7e-05 -2.1e-05 6e-06 -0.021023 0.089886 -0.020665 0.706424 -3.620643 -10.660068 -0.748154 3.795004 -10.662751 -7.030799 -8.137076 16.024166 -37.093025 13.733373 54.004879 -7.606692 -52.269768 4.336069 -5.224423 5.373307 -15.571863 -5.882107 9.861287 0.702591 -10.936877 -0.360574 7.156209 -1e-06 8.774828 -2e-06 -13.663006 17.016777 8.724472 -1.844034 2.498505 -2.507278 -10.163605 4.678947 4.621111 -20.976034 -0.0 3e-06 -21.226299 2.4517 -3.594003 0.0 -6e-06 1e-06 -1.362682 2.240799 -0.746323 -21.334923 0.584911 3.008324 -13.821221 -1e-06 2e-06 -23.887182 -0.249077 -0.839484 -62.980648 2.302539 -0.755273 -0.294024 1.679687 0.833257 -14.218217 0.093217 1.30058 -34.212067 -0.28756 0.96717 -20.033226 0.964539 1.212843 0.0 1e-06 0.0 -3.44039 0.788234 0.501656 -15.928192 -3.167309 2.999709 -6.338829 -2e-06 -0.0 -18.123455 3.648185 -4.905672 -4e-06 -0.0 -1e-06 21.984697 -3.287284 13.412545 27.437773 15.622537 20.67527 -2.099722 43.812405 -0.967538 18.697594 -38.480705 18.60379 2.243542 -5.255037 -3.180158 14.282896 -0.826589 6.952507 -4e-06 -12.690609 -1e-06 15.511845 -18.610495 2.596481 1.665666 -1.955924 -2.878299 4.727799 -4.170588 4.993926 11.020529 5e-06 0.0 12.109058 -3.735717 -2.866786 0.0 -0.0 -1e-06 1.291986 -1.92855 -1.498088 14.800139 0.567472 3.865608 14.242578 -1.341734 -6.660659 19.631975 0.143929 -0.648242 51.18322 -0.555633 -6.005057 0.35303 -1.51115 -0.03194 20.222801 3.684316 2.316633 18.787283 9e-06 4e-06 10.751633 -0.479866 1.397908 -0.0 0.0 1e-06 3.273808 0.305947 -0.580111 21.486828 11.83038 2.266135 8.16293 4e-06 0.0 18.399088 -3.798982 -4.940575 3e-06 -1e-06 -3e-06 -0.981503 14.215661 -34.195271 -0.270276 -0.102504 63.08276 -8.477647 6.371854 -32.853073 1.688528 -2.048607 -0.572416 -0.0 -1e-06 2e-06 2.723439 -14.990633 -59.069328 -0.19611 -0.331863 47.536831 1.608493 -3.576074 -6.522701 -1.437313 0.868039 -2.402058 -0.0 -0.0 -1e-06 
0.0 0.0 0.0 0.0 -0.0 0.0 -0.671395 86.529556 129.847015 1.179226 -6.871522 8.370598 -1.518703 -0.641855 5.807007 -1.07739 -1.126383 -2.000718 -2.66095 -4.491735 6.550774 6.080502 1.783787 -18.635954 -1.211805 -0.700637 -3.189086 3.821665 -4.620315 -4.919877 7.7e-05 -2.3e-05 6e-06 -0.058424 -0.035896 -0.054399 0.664199 -3.745829 -10.827162 -0.779372 3.672961 -10.811285 -7.047403 -8.716763 16.062624 -24.222502 15.036328 64.283623 -10.673324 -58.287785 7.360675 -25.186144 7.969366 2.284435 -5.882109 9.861288 0.702589 -10.936877 -0.360576 7.156209 1e-06 8.774829 -3e-06 -15.908742 17.632864 6.419661 -1.844032 2.498506 -2.507279 -10.163604 4.678946 4.62111 -20.976034 -3e-06 4e-06 -21.226299 2.451697 -3.593999 0.0 -6e-06 1e-06 -1.362682 2.2408 -0.746324 -21.334925 0.584909 3.008325 -13.82122 -4e-06 2e-06 -23.887182 -0.249079 -0.839483 -60.563351 2.644767 -1.212824 -0.294024 1.679688 0.833256 -14.218215 0.093216 1.300581 -34.212067 -0.287563 0.967172 -20.033226 0.964537 1.212845 -0.0 0.0 -0.0 -3.440389 0.788233 0.501656 -15.928198 -3.16731 2.999709 -6.338829 -1e-06 1e-06 -18.123457 3.648183 -4.905672 -4e-06 -0.0 -2e-06 22.303614 -1.438136 13.494192 22.047684 12.864133 14.090655 -3.252751 66.682182 -2.124569 17.227467 -27.49025 4.770465 2.243543 -5.255037 -3.180155 14.282898 -0.826596 6.952502 -3e-06 -12.690609 4e-06 16.69697 -17.325489 2.701423 1.665667 -1.955921 -2.878297 4.727801 -4.17059 4.993924 11.020531 2e-06 -1e-06 12.109058 -3.735717 -2.866786 -1e-06 -0.0 0.0 1.291984 -1.92855 -1.498089 14.800136 0.567467 3.865606 14.242579 -1.341738 -6.660656 19.631975 0.143925 -0.648245 53.602322 0.284039 -5.744516 0.353031 -1.511151 -0.031938 20.222801 3.68431 2.31663 18.787283 4e-06 1e-06 10.751633 -0.479869 1.397906 1e-06 -0.0 -1e-06 3.273809 0.305947 -0.580111 21.486824 11.830377 2.26613 8.16293 1e-06 -1e-06 18.399092 -3.798986 -4.940577 4e-06 1e-06 -1e-06 0.234057 14.927981 -33.35297 -0.230216 -0.167913 65.030807 -9.12816 4.446179 -33.410023 1.687616 -1.991747 -1.067767 -0.0 -0.0 2e-06 6.827657 -14.655296 -59.665726 -0.182337 -0.623459 39.065006 1.538624 -3.199359 -3.113945 -1.412995 0.86213 -2.801952 0.0 -0.0 -0.0 
